<?xml version="1.0"?>
<svg xmlns="http://www.w3.org/2000/svg" xmlns:xlink="http://www.w3.org/1999/xlink" version="1.1" id="Capa_1" x="0px" y="0px" viewBox="0 0 376 376" style="enable-background:new 0 0 376 376;" xml:space="preserve" width="512px" height="512px"><g><g>
	<path d="M291,249.108c-8.284,0-15,6.716-15,15v3H30V102.659c0.098-0.198,0.389-0.473,0.584-0.551H150c8.284,0,15-6.716,15-15   s-6.716-15-15-15H30.496C13.966,72.108,0,86.039,0,102.529v184.872c0,16.38,13.681,29.706,30.496,29.706H129v14.535   c0,2.809-2.525,5.465-5.197,5.465H62.495c-8.544,0-15.495,6.52-15.495,14.535v5.465c0,8.131,7.096,15,15.495,15h182.186   c8.304,0,15.318-6.869,15.318-15v-5.465c0-8.015-6.872-14.535-15.318-14.535h-61.308c-2.712,0-5.374-2.707-5.374-5.465v-14.535   h97.712c16.701,0,30.288-13.326,30.288-29.706v-23.294C306,255.824,299.284,249.108,291,249.108z" data-original="#000000" class="active-path" data-old_color="#000000" fill="#34C8E6"/>
	<path d="M370.041,28.844c-1.107,0-2.207,0.299-3.181,0.866c-5.574,3.249-13.325,5.038-21.823,5.038   c-6.356,0-12.934-0.953-19.548-2.832c-14.67-4.168-27.218-20.413-31.342-25.751c-1.115-1.444-2.902-2.272-4.902-2.272   c-1.895,0-3.593,0.795-4.655,2.182c-4.106,5.351-16.602,21.633-31.412,25.842c-6.613,1.879-13.232,2.832-19.673,2.832   c-8.2,0-15.741-1.63-21.234-4.59l-0.133-0.073c-0.759-0.419-2.171-1.201-3.979-1.201c-2.287,0-6.158,1.525-6.158,7.241v91.142   c0,26.015,22.107,48.165,40.653,62.165c18.977,14.325,41.198,25.106,46.347,25.106c4.536,0,27.186-11.48,45.468-25.085   c18.947-14.1,41.532-36.334,41.532-62.186V35.114C376,31.539,373.439,28.844,370.041,28.844z" data-original="#000000" class="active-path" data-old_color="#000000" fill="#34C8E6"/>
</g></g> </svg>
