<svg xmlns="http://www.w3.org/2000/svg" width="124" height="124" viewBox="0 0 124 124">
  <defs>
    <style>
      .cls-1 {
        fill: #ffb200;
        fill-rule: evenodd;
        opacity: 0.3;
      }
    </style>
  </defs>
  <path id="形状_3_拷贝_12" data-name="形状 3 拷贝 12" class="cls-1" d="M35.433-108.538l0.707,0.707L-100.331,28.64l-0.707-.707Zm7.778,7.778,0.707,0.707L-92.553,36.419l-0.707-.707Zm7.778,7.778L51.7-92.275-84.775,44.2l-0.707-.707ZM58.768-85.2L59.475-84.5-77,51.975l-0.707-.707Zm7.778,7.778,0.707,0.707L-69.219,59.753l-0.707-.707Zm7.778,7.778,0.707,0.707L-61.44,67.531l-0.707-.707ZM82.1-61.869l0.707,0.707L-53.662,75.309l-0.707-.707Zm7.778,7.778,0.707,0.707L-45.884,83.088l-0.707-.707Zm7.778,7.778,0.707,0.707L-38.106,90.866l-0.707-.707Zm7.778,7.778,0.707,0.707L-30.328,98.644l-0.707-.707Zm7.778,7.778,0.707,0.707L-22.549,106.422l-0.707-.707Zm7.778,7.778,0.707,0.707L-14.771,114.2l-0.707-.707Zm7.778,7.778,0.707,0.707L-6.993,121.978l-0.707-.707Zm7.779,7.778,0.707,0.707L0.785,129.757l-0.707-.707Zm7.778,7.778,0.707,0.707L8.563,137.535l-0.707-.707Zm7.778,7.778,0.707,0.707L16.341,145.313l-0.707-.707Zm7.778,7.778,0.707,0.707L24.12,153.091l-0.707-.707Zm7.778,7.778,0.707,0.707L31.9,160.869l-0.707-.707Zm7.778,7.778,0.707,0.707L39.676,168.647l-0.707-.707Zm7.779,7.778,0.707,0.707L47.454,176.426l-0.707-.707ZM191,47.025l0.707,0.707L55.232,184.2l-0.707-.707Zm7.778,7.778,0.707,0.707L63.01,191.982l-0.707-.707Zm7.778,7.778,0.707,0.707L70.789,199.76l-0.707-.707Zm7.778,7.778,0.707,0.707L78.567,207.538l-0.707-.707Z"/>
</svg>
