<?xml version="1.0" encoding="iso-8859-1"?>
<!-- Generator: Adobe Illustrator 18.0.0, SVG Export Plug-In . SVG Version: 6.00 Build 0)  -->
<!DOCTYPE svg PUBLIC "-//W3C//DTD SVG 1.1//EN" "http://www.w3.org/Graphics/SVG/1.1/DTD/svg11.dtd">
<svg version="1.1" id="Capa_1" xmlns="http://www.w3.org/2000/svg" xmlns:xlink="http://www.w3.org/1999/xlink" x="0px" y="0px"
	 viewBox="0 0 448.982 448.982" style="enable-background:new 0 0 448.982 448.982;" xml:space="preserve">
<g>
	<path d="M355.859,19.37h-37.501C314.418,8.105,303.689,0,291.096,0H157.882c-12.593,0-23.322,8.105-27.262,19.37H93.123
		c-19.636,0-35.611,15.975-35.611,35.611v358.39c0,19.636,15.975,35.611,35.611,35.611h262.736
		c19.636,0,35.611-15.975,35.611-35.611V54.981C391.47,35.345,375.495,19.37,355.859,19.37z M129.893,75.949
		c3.177,12.495,14.52,21.765,27.989,21.765h133.214c13.469,0,24.812-9.27,27.989-21.765h11.971v264.435H117.915V75.949H129.893z
		 M149.004,28.878c0-4.896,3.982-8.878,8.878-8.878h133.214c4.896,0,8.878,3.983,8.878,8.878v39.958
		c0,4.896-3.982,8.878-8.878,8.878H157.882c-4.896,0-8.878-3.982-8.878-8.878V28.878z M371.47,413.371
		c0,8.608-7.003,15.611-15.611,15.611H93.123c-8.608,0-15.611-7.003-15.611-15.611V54.981c0-8.608,7.003-15.611,15.611-15.611
		h35.881v16.579h-21.089c-5.523,0-10,4.477-10,10v284.435c0,5.523,4.477,10,10,10h233.142c5.523,0,10-4.477,10-10V65.949
		c0-5.523-4.477-10-10-10h-21.082V39.37h35.885c8.608,0,15.611,7.003,15.611,15.611V413.371z"/>
	<path d="M177.084,65.074h94.811c5.523,0,10-4.477,10-10v-7.771c0-5.523-4.477-10-10-10c-4.757,0-8.738,3.321-9.751,7.771h-75.309
		c-1.013-4.45-4.994-7.771-9.751-7.771c-5.523,0-10,4.477-10,10v7.771C167.084,60.597,171.561,65.074,177.084,65.074z"/>
	<path d="M186.988,156.493h118.494c5.523,0,10-4.477,10-10s-4.477-10-10-10H186.988c-5.523,0-10,4.477-10,10
		S181.465,156.493,186.988,156.493z"/>
	<path d="M143.49,156.493h15c5.523,0,10-4.477,10-10s-4.477-10-10-10h-15c-5.523,0-10,4.477-10,10S137.967,156.493,143.49,156.493z"
		/>
	<path d="M143.49,211.991h15c5.523,0,10-4.477,10-10s-4.477-10-10-10h-15c-5.523,0-10,4.477-10,10S137.967,211.991,143.49,211.991z"
		/>
	<path d="M186.988,211.991h118.494c5.523,0,10-4.477,10-10s-4.477-10-10-10H186.988c-5.523,0-10,4.477-10,10
		S181.465,211.991,186.988,211.991z"/>
	<path d="M143.49,267.488h15c5.523,0,10-4.477,10-10s-4.477-10-10-10h-15c-5.523,0-10,4.477-10,10S137.967,267.488,143.49,267.488z"
		/>
	<path d="M186.988,267.488h118.494c5.523,0,10-4.477,10-10s-4.477-10-10-10H186.988c-5.523,0-10,4.477-10,10
		S181.465,267.488,186.988,267.488z"/>
</g>
<g>
</g>
<g>
</g>
<g>
</g>
<g>
</g>
<g>
</g>
<g>
</g>
<g>
</g>
<g>
</g>
<g>
</g>
<g>
</g>
<g>
</g>
<g>
</g>
<g>
</g>
<g>
</g>
<g>
</g>
</svg>
