<svg height="512" viewBox="0 0 60 60" width="512" xmlns="http://www.w3.org/2000/svg"><g id="Page-1" fill="none" fill-rule="evenodd"><g id="018---Server" fill="rgb(0,0,0)" fill-rule="nonzero"><path id="Shape" d="m53 52.54c-.5522847 0-1-.4477153-1-1v-4.54h-19v4.54c0 .5522847-.4477153 1-1 1s-1-.4477153-1-1v-5.54c0-.5522847.4477153-1 1-1h21c.5522847 0 1 .4477153 1 1v5.54c0 .5522847-.4477153 1-1 1z"/><path id="Shape" d="m3 52.54c-.55228475 0-1-.4477153-1-1v-6.54c.00231494-2.2081794 1.79182059-3.9976851 4-4h21v-4c0-.5522847.4477153-1 1-1s1 .4477153 1 1v5c0 .5522847-.4477153 1-1 1h-22c-1.10404407.0012675-1.99873253.8959559-2 2v6.54c0 .5522847-.44771525 1-1 1z"/><path id="Shape" d="m57 52.54c-.5522847 0-1-.4477153-1-1v-6.54c-.0012675-1.1040441-.8959559-1.9987325-2-2h-22c-.5522847 0-1-.4477153-1-1v-5c0-.5522847.4477153-1 1-1s1 .4477153 1 1v4h21c2.2081794.0023149 3.9976851 1.7918206 4 4v6.54c0 .5522847-.4477153 1-1 1z"/><path id="Shape" d="m28 52.54c-.5522847 0-1-.4477153-1-1v-4.54h-19v4.54c0 .5522847-.44771525 1-1 1s-1-.4477153-1-1v-5.54c0-.5522847.44771525-1 1-1h21c.5522847 0 1 .4477153 1 1v5.54c0 .5522847-.4477153 1-1 1z"/><path id="Shape" d="m5 60c-2.76142375 0-5-2.2385763-5-5s2.23857625-5 5-5 5 2.2385763 5 5c-.00325114 2.760076-2.23992404 4.9967489-5 5zm0-8c-1.65685425 0-3 1.3431458-3 3s1.34314575 3 3 3 3-1.3431458 3-3c-.00181871-1.6561003-1.34389967-2.9981813-3-3z"/><path id="Shape" d="m55 60c-2.7614237 0-5-2.2385763-5-5s2.2385763-5 5-5 5 2.2385763 5 5c-.0032511 2.760076-2.239924 4.9967489-5 5zm0-8c-1.6568542 0-3 1.3431458-3 3s1.3431458 3 3 3 3-1.3431458 3-3c-.0018187-1.6561003-1.3438997-2.9981813-3-3z"/><path id="Shape" d="m30 60c-2.7614237 0-5-2.2385763-5-5s2.2385763-5 5-5 5 2.2385763 5 5c-.0032511 2.760076-2.239924 4.9967489-5 5zm0-8c-1.6568542 0-3 1.3431458-3 3s1.3431458 3 3 3 3-1.3431458 3-3c-.0018187-1.6561003-1.3438997-2.9981813-3-3z"/><path id="Shape" d="m42 14h-24c-2.2081794-.0023149-3.9976851-1.7918206-4-4v-6c.0023149-2.20817941 1.7918206-3.99768506 4-4h24c2.2081794.00231494 3.9976851 1.79182059 4 4v6c-.0023149 2.2081794-1.7918206 3.9976851-4 4zm-24-12c-1.1040441.00126747-1.9987325.89595593-2 2v6c.0012675 1.1040441.8959559 1.9987325 2 2h24c1.1040441-.0012675 1.9987325-.8959559 2-2v-6c-.0012675-1.10404407-.8959559-1.99873253-2-2z"/><path id="Shape" d="m42 26h-24c-2.2081794-.0023149-3.9976851-1.7918206-4-4v-6c.0023149-2.2081794 1.7918206-3.9976851 4-4h24c2.2081794.0023149 3.9976851 1.7918206 4 4v6c-.0023149 2.2081794-1.7918206 3.9976851-4 4zm-24-12c-1.1040441.0012675-1.9987325.8959559-2 2v6c.0012675 1.1040441.8959559 1.9987325 2 2h24c1.1040441-.0012675 1.9987325-.8959559 2-2v-6c-.0012675-1.1040441-.8959559-1.9987325-2-2z"/><path id="Shape" d="m42 38h-24c-2.2081794-.0023149-3.9976851-1.7918206-4-4v-6c.0023149-2.2081794 1.7918206-3.9976851 4-4h24c2.2081794.0023149 3.9976851 1.7918206 4 4v6c-.0023149 2.2081794-1.7918206 3.9976851-4 4zm-24-12c-1.1040441.0012675-1.9987325.8959559-2 2v6c.0012675 1.1040441.8959559 1.9987325 2 2h24c1.1040441-.0012675 1.9987325-.8959559 2-2v-6c-.0012675-1.1040441-.8959559-1.9987325-2-2z"/><path id="Shape" d="m39 10c-1.6568542 0-3-1.34314575-3-3s1.3431458-3 3-3 3 1.34314575 3 3c-.0018187 1.65610033-1.3438997 2.99818129-3 3zm0-4c-.5522847 0-1 .44771525-1 1s.4477153 1 1 1 1-.44771525 1-1c-.0004962-.55207909-.4479209-.9995038-1-1z"/><path id="Shape" d="m20 9c-.5522847 0-1-.44771525-1-1v-2c0-.55228475.4477153-1 1-1s1 .44771525 1 1v2c0 .55228475-.4477153 1-1 1z"/><path id="Shape" d="m24 9c-.5522847 0-1-.44771525-1-1v-2c0-.55228475.4477153-1 1-1s1 .44771525 1 1v2c0 .55228475-.4477153 1-1 1z"/><path id="Shape" d="m28 9c-.5522847 0-1-.44771525-1-1v-2c0-.55228475.4477153-1 1-1s1 .44771525 1 1v2c0 .55228475-.4477153 1-1 1z"/><path id="Shape" d="m32 9c-.5522847 0-1-.44771525-1-1v-2c0-.55228475.4477153-1 1-1s1 .44771525 1 1v2c0 .55228475-.4477153 1-1 1z"/><path id="Shape" d="m39 22c-1.6568542 0-3-1.3431458-3-3s1.3431458-3 3-3 3 1.3431458 3 3c-.0018187 1.6561003-1.3438997 2.9981813-3 3zm0-4c-.5522847 0-1 .4477153-1 1s.4477153 1 1 1 1-.4477153 1-1c-.0004962-.5520791-.4479209-.9995038-1-1z"/><path id="Shape" d="m20 21c-.5522847 0-1-.4477153-1-1v-2c0-.5522847.4477153-1 1-1s1 .4477153 1 1v2c0 .5522847-.4477153 1-1 1z"/><path id="Shape" d="m24 21c-.5522847 0-1-.4477153-1-1v-2c0-.5522847.4477153-1 1-1s1 .4477153 1 1v2c0 .5522847-.4477153 1-1 1z"/><path id="Shape" d="m28 21c-.5522847 0-1-.4477153-1-1v-2c0-.5522847.4477153-1 1-1s1 .4477153 1 1v2c0 .5522847-.4477153 1-1 1z"/><path id="Shape" d="m32 21c-.5522847 0-1-.4477153-1-1v-2c0-.5522847.4477153-1 1-1s1 .4477153 1 1v2c0 .5522847-.4477153 1-1 1z"/><path id="Shape" d="m39 34c-1.6568542 0-3-1.3431458-3-3s1.3431458-3 3-3 3 1.3431458 3 3c-.0018187 1.6561003-1.3438997 2.9981813-3 3zm0-4c-.5522847 0-1 .4477153-1 1s.4477153 1 1 1 1-.4477153 1-1c-.0004962-.5520791-.4479209-.9995038-1-1z"/><path id="Shape" d="m20 33c-.5522847 0-1-.4477153-1-1v-2c0-.5522847.4477153-1 1-1s1 .4477153 1 1v2c0 .5522847-.4477153 1-1 1z"/><path id="Shape" d="m24 33c-.5522847 0-1-.4477153-1-1v-2c0-.5522847.4477153-1 1-1s1 .4477153 1 1v2c0 .5522847-.4477153 1-1 1z"/><path id="Shape" d="m28 33c-.5522847 0-1-.4477153-1-1v-2c0-.5522847.4477153-1 1-1s1 .4477153 1 1v2c0 .5522847-.4477153 1-1 1z"/><path id="Shape" d="m32 33c-.5522847 0-1-.4477153-1-1v-2c0-.5522847.4477153-1 1-1s1 .4477153 1 1v2c0 .5522847-.4477153 1-1 1z"/></g></g></svg>